<svg width="1487" height="81" viewBox="0 0 1487 81" fill="none" xmlns="http://www.w3.org/2000/svg">
<path d="M598.97 81C542.546 81 512.731 65.3855 496 55.9518V0H986.804H991V55.9518C982.231 50.6927 957.927 33.8907 925.473 23.5842C887.061 11.3855 814.677 9.96702 775.376 24.3976C746.5 35 669.5 81 598.97 81Z" fill="#2B2B2B"/>
<path d="M1094.18 81C1037.64 81 1007.77 65.3855 991 55.9518V0H1482.8H1487L1487 55.9518C1478.21 50.6927 1453.86 33.8907 1421.34 23.5842C1382.85 11.3855 1317 6.5 1270.94 24.3976C1215.09 46.0974 1164.85 81 1094.18 81Z" fill="#2B2B2B"/>
<path d="M103.145 81C46.6253 81 16.7597 65.3855 0 55.9518V0H491.635H496V55.9518C487.216 50.6927 462.71 33.8907 430.201 23.5842C391.724 11.3855 319.566 10.9445 279.849 24.3976C251.5 34 173.794 81 103.145 81Z" fill="#2B2B2B"/>
</svg>
